<?xml version="1.0" encoding="UTF-8" standalone="no"?>
<svg
   xmlns:dc="http://purl.org/dc/elements/1.1/"
   xmlns:cc="http://creativecommons.org/ns#"
   xmlns:rdf="http://www.w3.org/1999/02/22-rdf-syntax-ns#"
   xmlns:svg="http://www.w3.org/2000/svg"
   xmlns="http://www.w3.org/2000/svg"
   xmlns:sodipodi="http://sodipodi.sourceforge.net/DTD/sodipodi-0.dtd"
   xmlns:inkscape="http://www.inkscape.org/namespaces/inkscape"
   version="1.1"
   width="1000"
   height="487.73401"
   viewBox="135.5 361.375 1000 487.73404"
   overflow="visible"
   enable-background="new 135.5 361.375 200 72"
   xml:space="preserve"
   id="svg2"
   inkscape:version="0.91 r13725"
   sodipodi:docname="Nike 1971 d.svg"
   style="overflow:visible"><metadata
   id="metadata10"><rdf:RDF><cc:Work
       rdf:about=""><dc:format>image/svg+xml</dc:format><dc:type
         rdf:resource="http://purl.org/dc/dcmitype/StillImage" /><dc:title></dc:title></cc:Work></rdf:RDF></metadata><defs
   id="defs8" /><sodipodi:namedview
   pagecolor="#ffffff"
   bordercolor="#666666"
   borderopacity="1"
   objecttolerance="10"
   gridtolerance="10"
   guidetolerance="10"
   inkscape:pageopacity="0"
   inkscape:pageshadow="2"
   inkscape:window-width="1366"
   inkscape:window-height="705"
   id="namedview6"
   showgrid="false"
   inkscape:zoom="0.70710678"
   inkscape:cx="443.54472"
   inkscape:cy="325.1911"
   inkscape:window-x="-8"
   inkscape:window-y="-8"
   inkscape:window-maximized="1"
   inkscape:current-layer="svg2" />

<path
   style="opacity:1;fill:#ffffff;fill-opacity:1;fill-rule:nonzero;stroke:#000000;stroke-width:10.00000062;stroke-linecap:round;stroke-linejoin:round;stroke-miterlimit:4;stroke-dasharray:none;stroke-opacity:1"
   d="m 566.52136,400.62986 a 27.939195,29.437098 0 0 0 -18.55444,36.75332 27.939195,29.437098 0 0 0 34.88487,19.55531 27.939195,29.437098 0 0 0 18.55269,-36.75939 27.939195,29.437098 0 0 0 -34.88312,-19.54924 z"
   id="path7660"
   inkscape:connector-curvature="0" /><path
   style="color:#000000;font-style:normal;font-variant:normal;font-weight:normal;font-stretch:normal;font-size:medium;line-height:normal;font-family:sans-serif;text-indent:0;text-align:start;text-decoration:none;text-decoration-line:none;text-decoration-style:solid;text-decoration-color:#000000;letter-spacing:normal;word-spacing:normal;text-transform:none;direction:ltr;block-progression:tb;writing-mode:lr-tb;baseline-shift:baseline;text-anchor:start;white-space:normal;clip-rule:nonzero;display:inline;overflow:visible;visibility:visible;opacity:1;isolation:auto;mix-blend-mode:normal;color-interpolation:sRGB;color-interpolation-filters:linearRGB;solid-color:#000000;solid-opacity:1;fill:#000000;fill-opacity:1;fill-rule:nonzero;stroke:none;stroke-width:20.00000191;stroke-linecap:butt;stroke-linejoin:miter;stroke-miterlimit:20;stroke-dasharray:none;stroke-dashoffset:0;stroke-opacity:1;color-rendering:auto;image-rendering:auto;shape-rendering:auto;text-rendering:auto;enable-background:accumulate"
   d="m 254.32089,480.91699 c -1.81868,0.17443 -3.62028,0.8396 -5.43449,2.21436 -0.52903,0.41825 -0.7313,0.63313 -0.89997,0.80272 -0.33729,0.33917 -0.44161,0.47276 -0.53884,0.58722 -0.19445,0.229 -0.26024,0.31655 -0.32692,0.40286 -0.13374,0.17267 -0.21281,0.28075 -0.3076,0.40967 -0.18952,0.25784 -0.40579,0.55864 -0.67733,0.9379 -0.54304,0.75844 -1.28994,1.81125 -2.19907,3.0992 -1.81835,2.57591 -4.2789,6.08133 -6.92473,9.86211 -5.2916,7.56148 -11.30138,16.19224 -14.36836,20.66232 l -10e-4,0.002 -0.001,0.002 c -41.23612,60.17 -64.06285,103.22268 -76.64672,145.48664 -14.6994,49.37641 -14.2977,93.36011 3.36616,126.02896 l 0.002,-2.6e-4 c 5.74401,10.62058 13.42081,19.98136 23.49186,28.83002 5.01064,4.4039 13.76047,10.50624 19.68325,13.72372 l 0.002,10e-4 0.002,10e-4 c 23.84399,12.93872 52.3282,17.44767 84.41077,14.04745 35.76438,-3.79055 77.19838,-17.65147 121.9827,-40.21604 l 10e-4,-0.002 c 17.37026,-8.75078 27.47692,-14.4217 63.66441,-35.68118 114.15733,-67.0807 281.18523,-165.261 419.6647,-246.67538 69.2399,-40.70721 131.34189,-77.22189 176.13149,-103.5635 22.3948,-13.17081 40.4608,-23.79875 52.9279,-31.13506 6.2334,-3.66813 11.0672,-6.51422 14.3432,-8.44445 1.6384,-0.96517 2.8873,-1.69946 3.7307,-2.19733 0.4213,-0.24894 0.74,-0.43921 0.9631,-0.57158 0.1145,-0.0662 0.1987,-0.11647 0.2747,-0.16263 0.037,-0.0231 0.071,-0.0393 0.1304,-0.0788 6.4171,-4.21241 4.9799,-10.19014 3.3321,-13.01801 -1.6475,-2.82778 -6.1821,-6.42093 -12.6943,-4.21146 -0.1005,0.0386 -0.1339,0.0513 -0.1692,0.0647 -0.069,0.0273 -0.1092,0.0449 -0.1603,0.0654 -0.1005,0.0414 -0.2259,0.0902 -0.3848,0.15558 -0.32,0.13056 -0.782,0.3213 -1.3918,0.5718 -1.2196,0.501 -3.025,1.24315 -5.3913,2.21778 -4.7327,1.94924 -11.7045,4.82477 -20.677,8.52561 -17.9458,7.40172 -43.8931,18.10887 -75.9094,31.32409 -64.03216,26.43045 -152.34367,62.89407 -249.47658,103.01217 -97.1307,40.11437 -186.10337,76.83452 -251.2,103.67991 -32.54859,13.42276 -59.12836,24.37603 -77.7733,32.05056 -9.32256,3.83728 -16.66222,6.85557 -21.76777,8.9502 -5.10557,2.09465 -8.97568,3.63895 -8.12297,3.31742 -46.35425,17.41151 -84.92372,21.36184 -111.02855,13.59215 l -0.002,3e-4 c -14.57369,-4.3407 -29.18431,-14.448 -38.46352,-26.75491 l -0.002,-10e-4 c 0,0 -3.2e-4,-0.002 -3.2e-4,-0.002 C 245.96538,624.87667 240.331,599.04905 244.3931,565.90396 l -3e-4,-0.002 -3e-4,-0.002 c 2.51115,-20.54248 9.45676,-45.55598 18.66272,-66.94733 l 10e-4,-0.002 c 0.569,-1.32316 1.0758,-2.52339 1.454,-3.44166 0.18911,-0.45907 0.3419,-0.83741 0.48124,-1.19797 0.0698,-0.18028 0.12844,-0.33019 0.23525,-0.64529 1.86286,-5.92752 -1.80605,-9.67274 -3.76007,-10.96629 -1.95404,-1.29351 -3.8499,-1.61517 -3.85004,-1.61522 -1.11021,-0.20053 -2.20754,-0.273 -3.29878,-0.16809 z m 1.14914,9.68561 c 0.0518,-0.005 -0.81768,2.10111 -1.92527,4.67665 -9.57262,22.24342 -16.70667,47.84576 -19.35406,69.50216 -4.25879,34.75085 1.50541,63.21489 16.93526,83.70473 10.64067,14.11451 26.79584,25.33985 43.74617,30.38789 29.67338,8.83263 70.2716,4.06105 117.91043,-13.83511 3.27922,-1.23642 164.9053,-67.89057 359.17095,-148.12119 194.26487,-80.2356 353.24189,-145.85328 353.27319,-145.82268 0.063,0.0359 -439.72852,258.59483 -668.04121,392.7545 -36.15784,21.24212 -45.86396,26.69137 -63.07428,35.36151 -43.99388,22.16659 -84.4431,35.5505 -118.3016,39.13908 -30.44397,3.22653 -56.46285,-1.04662 -78.16355,-12.82227 -4.14193,-2.25008 -14.28565,-9.32484 -17.80499,-12.41818 -9.3534,-8.2181 -16.15404,-16.54884 -21.33701,-26.13201 -15.95058,-29.50018 -16.87011,-71.098 -2.6241,-118.95127 12.19818,-40.96866 34.41671,-83.06132 75.37717,-142.82911 6.03505,-8.79587 24.07297,-34.57452 24.2129,-34.5947 z"
   id="path4167"
   inkscape:connector-curvature="0" /><path
   style="fill:#ffffff;fill-opacity:1;fill-rule:evenodd;stroke:#000000;stroke-width:10.00000062;stroke-linecap:butt;stroke-linejoin:miter;stroke-opacity:1;stroke-miterlimit:4;stroke-dasharray:none"
   d="m 365.95411,765.64916 11.47325,-139.48928 c 2.66391,-54.37631 -23.15001,8.57888 -22.17824,32.62821 l -12.94976,-7.38331 c 0,0 6.38101,-76.73205 40.6167,-85.14244 34.23573,-8.41039 27.05416,49.29105 27.05416,49.29105 0,0 33.0479,-67.23433 54.27823,-70.56304 21.23033,-3.32871 33.75919,7.7597 33.09895,41.47891 -0.12841,6.55944 -17.86935,144.82213 -0.96181,104.02055 L 551.66457,557.0898 c 14.41066,-35.18005 16.37683,-38.86979 29.92761,-42.43279 13.55078,-3.56299 28.41476,7.46695 26.51203,30.5377 l -5.14027,92.59002 c -0.19779,14.4899 -1.35781,26.57365 0.36441,28.94612 5.42902,7.47856 20.11482,-23.89884 23.09307,-34.99157 l 9.26918,9.4968 c -3.51136,13.0789 -17.55574,61.73955 -49.35511,70.10077 -23.53778,6.18894 -20.31109,-22.261 -20.84524,-32.74325 -1.06765,-20.95406 12.53129,-136.52491 3.62061,-124.24044 l -59.80602,139.61661 c -2.9057,13.27399 -18.03321,41.42564 -34.02653,44.8963 -15.99331,3.47071 -25.64908,-5.55006 -24.76961,-26.43293 l 7.67014,-112.69996 c 6.6595,-44.06623 -17.36115,-15.20198 -33.41426,18.37143 -16.05319,33.57317 -14.65674,33.18536 -16.60705,54.27173 l -3.28107,83.03871 z"
   id="path7658"
   inkscape:connector-curvature="0"
   sodipodi:nodetypes="cccczczssczccsccsscczcczccc" /><path
   style="fill:#ffffff;fill-opacity:1;fill-rule:evenodd;stroke:#000000;stroke-width:10.00000062;stroke-linecap:butt;stroke-linejoin:miter;stroke-opacity:1;stroke-miterlimit:4;stroke-dasharray:none"
   d="m 642.94497,393.51466 c -3.94662,1.03771 -2.31589,6.78864 1.71757,5.7281 l 3.10764,-0.81712 c 23.59563,-6.20415 19.30777,18.1829 19.30777,18.1829 l -19.82432,277.94664 36.75354,-9.66385 5.85139,-81.5586 30.26844,56.99597 c 8.1498,16.23926 26.85281,17.2749 37.89467,-0.58811 l 42.08219,-55.00867 c 10.28476,28.95362 30.23251,45.22416 50.35717,40.28025 34.23565,-8.4105 61.61632,-64.03756 56.97116,-81.69874 l -12.94755,-7.38166 c 1.13312,28.04206 -9.75917,60.01295 -36.83435,67.132 -20.16614,5.30242 -30.20256,-22.37539 -30.22215,-56.09937 102.66845,-62.74993 73.28232,-124.69266 39.79751,-124.44816 -2.56332,0.0767 -6.20053,0.58288 -10.49736,1.83456 -18.61971,5.42395 -49.74274,24.82335 -60.73151,83.68923 -4.36298,23.37216 -3.78518,44.69254 0.12107,62.59817 l -32.39333,40.06377 c -10.0445,16.24964 -18.13669,7.80875 -22.20366,-1.19625 l -25.10322,-51.14573 c 29.69751,-12.94094 72.32302,-62.58568 63.59959,-88.54857 -8.22483,-24.47884 -35.59704,-34.55687 -83.67811,23.22164 l 8.47231,-118.04663 c -0.31864,-7.88608 4.41412,-18.89935 -16.38618,-13.4302 l -45.4804,11.95846 z M 828.1927,550.60381 c 0.58124,-6.44432 1.47009,-12.94133 2.73128,-19.33894 8.12862,-41.23403 8.9408,-58.138 22.8865,-67.37628 13.94569,-9.23829 20.0209,-2.22545 21.36536,2.94164 10.18185,33.76932 -26.54669,71.28413 -46.98314,83.77358 z m -95.13033,-46.98163 c 12.05679,-3.15065 18.83646,4.03084 18.92108,10.73281 0.47879,37.91333 -37.30115,53.58212 -60.12166,61.10231 l 2.7819,-38.77874 c 15.70391,-21.34603 28.75909,-30.53282 38.41868,-33.05638 z"
   id="path7665"
   inkscape:connector-curvature="0"
   sodipodi:nodetypes="csscccccccsccsccssccccsccscccszccccccc" /></svg>